<?xml version="1.0" encoding="utf-8"?>
<!-- Generator: Adobe Illustrator 27.4.1, SVG Export Plug-In . SVG Version: 6.00 Build 0)  -->
<svg version="1.1" id="Layer_1" xmlns="http://www.w3.org/2000/svg" xmlns:xlink="http://www.w3.org/1999/xlink" x="0px" y="0px"
	 viewBox="0 0 3108 448" style="enable-background:new 0 0 3108 448;" xml:space="preserve">
<style type="text/css">
	.st0{display:none;}
	.st1{fill:#003DB2;}
	.st2{fill:#FFFFFF;}
	.st3{fill:#19191A;}
</style>
<g id="Logo_00000178917533940302576370000017831384406608480702_">
	<g>
		<g>
			<path class="st2" d="M391.9,170H214.8c-24.9,0-45,20.1-45,45s20.1,45,45,45H340L391.9,170z"/>
		</g>
		<path class="st2" d="M214.9,0C96.4,0,0,96.4,0,215v9.7c0,93.9,60.6,173.7,144.6,202.9l43.1-74.7l-34-19.4
			c-38-21.4-63.7-62.1-63.7-108.8V215c0-68.9,56-125,124.9-125H438l52-90H214.9z"/>
	</g>
	<g>
		<polygon class="st2" points="710,365.3 764.7,365.3 764.7,235.5 897.9,235.5 897.9,188.7 764.7,188.7 764.7,101.4 928.8,101.4 
			928.8,55 710,55 		"/>
		<rect x="962.6" y="55" class="st2" width="48.6" height="310.3"/>
		<rect x="1057.6" y="57.6" class="st2" width="52.5" height="49.5"/>
		<rect x="1059.8" y="143.5" class="st2" width="48.6" height="221.8"/>
		<path class="st2" d="M1310.7,169.1h-0.9c-6.7-9-15.4-16.6-26.3-22.8c-10.8-6.2-24.1-9.3-39.7-9.3c-19.1,0-35.9,4.3-50.3,13
			c-14.5,8.7-25.9,21.2-34.3,37.5c-8.4,16.4-12.6,35.7-12.6,57.9c0,22.9,4.2,42.5,12.6,58.8c8.4,16.3,19.8,28.7,34.3,37.1
			c14.5,8.4,31.2,12.6,50.3,12.6c15.9,0,29.2-3,39.9-8.9s19.4-13.7,26-23.2h0.9v26c0,20.5-4.6,35.4-13.7,44.7
			c-9.1,9.2-23.5,13.9-43.2,13.9c-15.6,0-27.6-2.9-35.8-8.7c-8.2-5.8-13.4-13.7-15.4-23.9h-49.9c1.7,13.3,6.5,25.3,14.3,36
			c7.8,10.7,19.1,19.2,33.9,25.4c14.8,6.2,32.4,9.3,52.9,9.3c33.6,0,59.5-8,77.9-24.1c18.4-16.1,27.6-41,27.6-74.9V144h-48.6
			L1310.7,169.1L1310.7,169.1z M1303.7,283.9c-4.3,10.3-10.8,18.1-19.3,23.4c-8.5,5.4-18.9,8-31,8c-18.2,0-32.2-6.3-41.9-18.9
			c-9.7-12.6-14.5-29.6-14.5-51c0-13.6,2.1-25.6,6.3-36c4.2-10.4,10.5-18.5,18.9-24.3c8.4-5.8,18.8-8.7,31.2-8.7
			c12.2,0,22.5,2.5,31,7.6c8.5,5.1,15,12.8,19.3,23.2c4.3,10.4,6.5,23.2,6.5,38.2C1310.2,260.9,1308.1,273.7,1303.7,283.9z"/>
		<path class="st2" d="M1530.3,137c-17.9,0-32.9,3.3-44.9,10c-12,6.7-21.3,15.2-28,25.6h-0.9V55h-48.6v310.3h48.6V231.2
			c0-10.7,2.2-20.1,6.7-28.2c4.5-8.1,10.9-14.2,19.3-18.4c8.4-4.2,18.2-6.3,29.5-6.3c14.8,0,25.5,4.1,32.3,12.4
			c6.8,8.2,10.2,20.3,10.2,36.2v138.5h48.6V212.5c0-24.3-6.7-43-20.2-56C1569.5,143.5,1552,137,1530.3,137z"/>
		<path class="st2" d="M1721.9,327.1c-3.3-1.4-5.9-4.2-7.6-8.2s-2.6-10-2.6-17.8V182.6h41.7v-39.1h-41.7v-69h-48.6v69h-31.7v39.1
			h31.7v118.5c0,16.8,2.3,30.1,6.9,39.9c4.6,9.8,11.3,16.9,20.2,21c8.8,4.2,20.2,6.3,34.1,6.3c9.6,0,19.5-1,30-3V328
			c-7,0.9-13,1.3-18.2,1.3C1729.9,329.3,1725.2,328.6,1721.9,327.1z"/>
		<path class="st2" d="M1851.6,186.5c8.8-7,20-10.4,33.7-10.4c11.9,0,21.5,2.3,28.8,6.9c7.4,4.6,12.8,10.6,16.3,18
			c3.5,7.4,5.6,15.3,6.5,23.7h49.5c-1.7-16.8-7-31.8-15.8-45.1s-20.5-23.7-35.2-31.2c-14.6-7.5-31.5-11.3-50.6-11.3
			c-21.7,0-40.9,5-57.5,15c-16.6,10-29.5,23.9-38.6,41.7c-9.1,17.8-13.7,38-13.7,60.5c0,23.2,4.6,43.6,13.7,61.4s22,31.6,38.6,41.4
			c16.6,9.8,36,14.8,57.9,14.8c19.4,0,36.5-3.8,51.4-11.5s26.7-18.2,35.4-31.7c8.7-13.5,13.5-28.7,14.3-45.8h-49.5
			c-0.9,9-3,17.2-6.3,24.7c-3.3,7.5-8.8,13.6-16.3,18.2c-7.5,4.6-17.2,6.9-29.1,6.9c-13.6,0-24.8-3.5-33.7-10.6
			s-15.3-16.5-19.5-28.2c-4.2-11.7-6.3-25-6.3-39.7c0-14.5,2.1-27.6,6.3-39.5C1836.3,202.9,1842.8,193.4,1851.6,186.5z"/>
		<path class="st2" d="M2183.2,151.8c-16.9-9.8-36.8-14.8-59.7-14.8c-23.2,0-43.3,4.9-60.3,14.5c-17.1,9.7-30.2,23.5-39.3,41.4
			c-9.1,17.9-13.7,38.5-13.7,61.6c0,22.9,4.6,43.2,13.7,61c9.1,17.8,22.1,31.7,38.8,41.7c16.8,10,36.7,15,59.9,15
			c23.1,0,43.3-5,60.3-15c17.1-10,30.1-23.9,39.1-41.7c9-17.8,13.5-38.3,13.5-61.4s-4.5-43.5-13.5-61.2
			C2213.1,175.4,2200.2,161.6,2183.2,151.8z M2178.7,295.4c-4.6,11.9-11.6,21.1-20.8,27.6c-9.3,6.5-20.7,9.8-34.3,9.8
			c-20.5,0-36.2-7.2-46.9-21.5c-10.7-14.3-16.1-33.2-16.1-56.6c0-15.3,2.3-29,6.9-41c4.6-12,11.6-21.3,21-28
			c9.4-6.6,20.9-10,34.5-10c20.3,0,35.7,7.2,46.4,21.7c10.7,14.5,16.1,33.4,16.1,56.9C2185.6,269.8,2183.3,283.6,2178.7,295.4z"/>
		<path class="st2" d="M2395.7,137c-17.9,0-32.9,3.3-44.9,10c-12,6.7-21.3,15.2-28,25.6h-0.9v-29.1h-48.6v221.8h48.6V231.2
			c0-10.7,2.2-20.1,6.7-28.2c4.5-8.1,10.9-14.2,19.3-18.4s18.2-6.3,29.5-6.3c14.8,0,25.5,4.1,32.3,12.4c6.8,8.3,10.3,20.3,10.3,36.2
			v138.5h48.6V212.5c0-24.3-6.7-43-20.2-56S2417.4,137,2395.7,137z"/>
		<path class="st2" d="M2587.3,327.1c-3.3-1.4-5.9-4.2-7.6-8.2s-2.6-10-2.6-17.8V182.6h41.7v-39.1h-41.7v-69h-48.6v69h-31.7v39.1
			h31.7v118.5c0,16.8,2.3,30.1,6.9,39.9c4.6,9.8,11.4,16.9,20.2,21c8.8,4.2,20.2,6.3,34.1,6.3c9.5,0,19.5-1,29.9-3V328
			c-6.9,0.9-13,1.3-18.2,1.3C2595.3,329.3,2590.6,328.6,2587.3,327.1z"/>
		<path class="st2" d="M2729.4,151.1c-9.6,8-17.2,19.2-23,33.6h-0.9v-41.2h-48.6v221.8h48.6v-112c0-13.9,2.7-26,8.2-36.2
			c5.5-10.3,13.2-18.2,23.2-23.9s21-8.5,33.2-8.5c4,0,8.7,0.3,13.9,0.9v-44.7c-5.5-1.2-12-1.7-19.5-1.7
			C2750.7,139.2,2739,143.2,2729.4,151.1z"/>
		<path class="st2" d="M2967,151.8c-16.9-9.8-36.8-14.8-59.7-14.8c-23.2,0-43.3,4.9-60.3,14.5c-17.1,9.7-30.2,23.5-39.3,41.4
			s-13.7,38.5-13.7,61.6c0,22.9,4.6,43.2,13.7,61c9.1,17.8,22.1,31.7,38.8,41.7c16.8,10,36.7,15,59.9,15c23.1,0,43.3-5,60.3-15
			c17.1-10,30.1-23.9,39.1-41.7c9-17.8,13.5-38.3,13.5-61.4s-4.5-43.5-13.5-61.2C2996.9,175.4,2984,161.6,2967,151.8z M2962.5,295.4
			c-4.6,11.9-11.6,21.1-20.8,27.6c-9.3,6.5-20.7,9.8-34.3,9.8c-20.5,0-36.2-7.2-46.9-21.5c-10.7-14.3-16.1-33.2-16.1-56.6
			c0-15.3,2.3-29,6.9-41c4.6-12,11.6-21.3,21-28c9.4-6.6,20.9-10,34.5-10c20.3,0,35.7,7.2,46.4,21.7c10.7,14.5,16.1,33.4,16.1,56.9
			C2969.4,269.8,2967.1,283.6,2962.5,295.4z"/>
		<rect x="3057.1" y="55" class="st2" width="48.6" height="310.3"/>
	</g>
</g>
<g>
	<g>
		<path class="st2" d="M391.9,170H214.8c-24.9,0-45,20.1-45,45s20.1,45,45,45H340L391.9,170z"/>
	</g>
	<path class="st2" d="M214.9,0C96.4,0,0,96.4,0,215v9.7c0,93.9,60.6,173.7,144.6,202.9l43.1-74.7l-34-19.4
		c-38-21.4-63.7-62.1-63.7-108.8V215c0-68.9,56-125,124.9-125H438l52-90H214.9z"/>
</g>
</svg>
